
  <svg xmlns="http://www.w3.org/2000/svg" width="600" height="600" viewBox="0 0 600 600">
    <defs>
      <linearGradient id="sunset" x1="0%" y1="0%" x2="100%" y2="100%">
        <stop offset="0%" stop-color="#FF9E44" />
        <stop offset="50%" stop-color="#FF6B00" />
        <stop offset="100%" stop-color="#E85A0C" />
      </linearGradient>
    </defs>

    <rect width="600" height="600" rx="40" fill="#0E0E11" />
    <rect x="24" y="24" width="552" height="552" rx="32" fill="none" stroke="#25252D" stroke-width="1.5" />

    <!-- QR Elements -->
    <rect x="212.8" y="68.8" width="14.4" height="14.4" rx="3.5" fill="url(#sunset)" />
<rect x="244.8" y="68.8" width="14.4" height="14.4" rx="3.5" fill="url(#sunset)" />
<rect x="260.8" y="68.8" width="14.4" height="14.4" rx="3.5" fill="url(#sunset)" />
<rect x="276.8" y="68.8" width="14.4" height="14.4" rx="3.5" fill="url(#sunset)" />
<rect x="292.8" y="68.8" width="14.4" height="14.4" rx="3.5" fill="url(#sunset)" />
<rect x="356.8" y="68.8" width="14.4" height="14.4" rx="3.5" fill="url(#sunset)" />
<rect x="372.8" y="68.8" width="14.4" height="14.4" rx="3.5" fill="url(#sunset)" />
<rect x="196.8" y="84.8" width="14.4" height="14.4" rx="3.5" fill="url(#sunset)" />
<rect x="212.8" y="84.8" width="14.4" height="14.4" rx="3.5" fill="url(#sunset)" />
<rect x="228.8" y="84.8" width="14.4" height="14.4" rx="3.5" fill="url(#sunset)" />
<rect x="244.8" y="84.8" width="14.4" height="14.4" rx="3.5" fill="url(#sunset)" />
<rect x="260.8" y="84.8" width="14.4" height="14.4" rx="3.5" fill="url(#sunset)" />
<rect x="292.8" y="84.8" width="14.4" height="14.4" rx="3.5" fill="url(#sunset)" />
<rect x="308.8" y="84.8" width="14.4" height="14.4" rx="3.5" fill="url(#sunset)" />
<rect x="340.8" y="84.8" width="14.4" height="14.4" rx="3.5" fill="url(#sunset)" />
<rect x="388.8" y="84.8" width="14.4" height="14.4" rx="3.5" fill="url(#sunset)" />
<rect x="292.8" y="100.8" width="14.4" height="14.4" rx="3.5" fill="url(#sunset)" />
<rect x="308.8" y="100.8" width="14.4" height="14.4" rx="3.5" fill="url(#sunset)" />
<rect x="340.8" y="100.8" width="14.4" height="14.4" rx="3.5" fill="url(#sunset)" />
<rect x="356.8" y="100.8" width="14.4" height="14.4" rx="3.5" fill="url(#sunset)" />
<rect x="372.8" y="100.8" width="14.4" height="14.4" rx="3.5" fill="url(#sunset)" />
<rect x="388.8" y="100.8" width="14.4" height="14.4" rx="3.5" fill="url(#sunset)" />
<rect x="212.8" y="116.8" width="14.4" height="14.4" rx="3.5" fill="url(#sunset)" />
<rect x="244.8" y="116.8" width="14.4" height="14.4" rx="3.5" fill="url(#sunset)" />
<rect x="260.8" y="116.8" width="14.4" height="14.4" rx="3.5" fill="url(#sunset)" />
<rect x="292.8" y="116.8" width="14.4" height="14.4" rx="3.5" fill="url(#sunset)" />
<rect x="308.8" y="116.8" width="14.4" height="14.4" rx="3.5" fill="url(#sunset)" />
<rect x="372.8" y="116.8" width="14.4" height="14.4" rx="3.5" fill="url(#sunset)" />
<rect x="388.8" y="116.8" width="14.4" height="14.4" rx="3.5" fill="url(#sunset)" />
<rect x="212.8" y="132.8" width="14.4" height="14.4" rx="3.5" fill="url(#sunset)" />
<rect x="228.8" y="132.8" width="14.4" height="14.4" rx="3.5" fill="url(#sunset)" />
<rect x="244.8" y="132.8" width="14.4" height="14.4" rx="3.5" fill="url(#sunset)" />
<rect x="260.8" y="132.8" width="14.4" height="14.4" rx="3.5" fill="url(#sunset)" />
<rect x="276.8" y="132.8" width="14.4" height="14.4" rx="3.5" fill="url(#sunset)" />
<rect x="308.8" y="132.8" width="14.4" height="14.4" rx="3.5" fill="url(#sunset)" />
<rect x="356.8" y="132.8" width="14.4" height="14.4" rx="3.5" fill="url(#sunset)" />
<rect x="196.8" y="148.8" width="14.4" height="14.4" rx="3.5" fill="url(#sunset)" />
<rect x="212.8" y="148.8" width="14.4" height="14.4" rx="3.5" fill="url(#sunset)" />
<rect x="276.8" y="148.8" width="14.4" height="14.4" rx="3.5" fill="url(#sunset)" />
<rect x="324.8" y="148.8" width="14.4" height="14.4" rx="3.5" fill="url(#sunset)" />
<rect x="356.8" y="148.8" width="14.4" height="14.4" rx="3.5" fill="url(#sunset)" />
<rect x="372.8" y="148.8" width="14.4" height="14.4" rx="3.5" fill="url(#sunset)" />
<rect x="196.8" y="164.8" width="14.4" height="14.4" rx="3.5" fill="url(#sunset)" />
<rect x="228.8" y="164.8" width="14.4" height="14.4" rx="3.5" fill="url(#sunset)" />
<rect x="260.8" y="164.8" width="14.4" height="14.4" rx="3.5" fill="url(#sunset)" />
<rect x="292.8" y="164.8" width="14.4" height="14.4" rx="3.5" fill="url(#sunset)" />
<rect x="324.8" y="164.8" width="14.4" height="14.4" rx="3.5" fill="url(#sunset)" />
<rect x="356.8" y="164.8" width="14.4" height="14.4" rx="3.5" fill="url(#sunset)" />
<rect x="388.8" y="164.8" width="14.4" height="14.4" rx="3.5" fill="url(#sunset)" />
<rect x="196.8" y="180.8" width="14.4" height="14.4" rx="3.5" fill="url(#sunset)" />
<rect x="212.8" y="180.8" width="14.4" height="14.4" rx="3.5" fill="url(#sunset)" />
<rect x="228.8" y="180.8" width="14.4" height="14.4" rx="3.5" fill="url(#sunset)" />
<rect x="260.8" y="180.8" width="14.4" height="14.4" rx="3.5" fill="url(#sunset)" />
<rect x="308.8" y="180.8" width="14.4" height="14.4" rx="3.5" fill="url(#sunset)" />
<rect x="324.8" y="180.8" width="14.4" height="14.4" rx="3.5" fill="url(#sunset)" />
<rect x="340.8" y="180.8" width="14.4" height="14.4" rx="3.5" fill="url(#sunset)" />
<rect x="356.8" y="180.8" width="14.4" height="14.4" rx="3.5" fill="url(#sunset)" />
<rect x="372.8" y="180.8" width="14.4" height="14.4" rx="3.5" fill="url(#sunset)" />
<rect x="388.8" y="180.8" width="14.4" height="14.4" rx="3.5" fill="url(#sunset)" />
<rect x="132.8" y="196.8" width="14.4" height="14.4" rx="3.5" fill="url(#sunset)" />
<rect x="148.8" y="196.8" width="14.4" height="14.4" rx="3.5" fill="url(#sunset)" />
<rect x="164.8" y="196.8" width="14.4" height="14.4" rx="3.5" fill="url(#sunset)" />
<rect x="180.8" y="196.8" width="14.4" height="14.4" rx="3.5" fill="url(#sunset)" />
<rect x="212.8" y="196.8" width="14.4" height="14.4" rx="3.5" fill="url(#sunset)" />
<rect x="228.8" y="196.8" width="14.4" height="14.4" rx="3.5" fill="url(#sunset)" />
<rect x="260.8" y="196.8" width="14.4" height="14.4" rx="3.5" fill="url(#sunset)" />
<rect x="292.8" y="196.8" width="14.4" height="14.4" rx="3.5" fill="url(#sunset)" />
<rect x="324.8" y="196.8" width="14.4" height="14.4" rx="3.5" fill="url(#sunset)" />
<rect x="356.8" y="196.8" width="14.4" height="14.4" rx="3.5" fill="url(#sunset)" />
<rect x="372.8" y="196.8" width="14.4" height="14.4" rx="3.5" fill="url(#sunset)" />
<rect x="388.8" y="196.8" width="14.4" height="14.4" rx="3.5" fill="url(#sunset)" />
<rect x="420.8" y="196.8" width="14.4" height="14.4" rx="3.5" fill="url(#sunset)" />
<rect x="436.8" y="196.8" width="14.4" height="14.4" rx="3.5" fill="url(#sunset)" />
<rect x="500.8" y="196.8" width="14.4" height="14.4" rx="3.5" fill="url(#sunset)" />
<rect x="68.8" y="212.8" width="14.4" height="14.4" rx="3.5" fill="url(#sunset)" />
<rect x="84.8" y="212.8" width="14.4" height="14.4" rx="3.5" fill="url(#sunset)" />
<rect x="116.8" y="212.8" width="14.4" height="14.4" rx="3.5" fill="url(#sunset)" />
<rect x="132.8" y="212.8" width="14.4" height="14.4" rx="3.5" fill="url(#sunset)" />
<rect x="148.8" y="212.8" width="14.4" height="14.4" rx="3.5" fill="url(#sunset)" />
<rect x="180.8" y="212.8" width="14.4" height="14.4" rx="3.5" fill="url(#sunset)" />
<rect x="212.8" y="212.8" width="14.4" height="14.4" rx="3.5" fill="url(#sunset)" />
<rect x="228.8" y="212.8" width="14.4" height="14.4" rx="3.5" fill="url(#sunset)" />
<rect x="260.8" y="212.8" width="14.4" height="14.4" rx="3.5" fill="url(#sunset)" />
<rect x="292.8" y="212.8" width="14.4" height="14.4" rx="3.5" fill="url(#sunset)" />
<rect x="324.8" y="212.8" width="14.4" height="14.4" rx="3.5" fill="url(#sunset)" />
<rect x="340.8" y="212.8" width="14.4" height="14.4" rx="3.5" fill="url(#sunset)" />
<rect x="372.8" y="212.8" width="14.4" height="14.4" rx="3.5" fill="url(#sunset)" />
<rect x="388.8" y="212.8" width="14.4" height="14.4" rx="3.5" fill="url(#sunset)" />
<rect x="420.8" y="212.8" width="14.4" height="14.4" rx="3.5" fill="url(#sunset)" />
<rect x="436.8" y="212.8" width="14.4" height="14.4" rx="3.5" fill="url(#sunset)" />
<rect x="452.8" y="212.8" width="14.4" height="14.4" rx="3.5" fill="url(#sunset)" />
<rect x="500.8" y="212.8" width="14.4" height="14.4" rx="3.5" fill="url(#sunset)" />
<rect x="516.8" y="212.8" width="14.4" height="14.4" rx="3.5" fill="url(#sunset)" />
<rect x="68.8" y="228.8" width="14.4" height="14.4" rx="3.5" fill="url(#sunset)" />
<rect x="84.8" y="228.8" width="14.4" height="14.4" rx="3.5" fill="url(#sunset)" />
<rect x="132.8" y="228.8" width="14.4" height="14.4" rx="3.5" fill="url(#sunset)" />
<rect x="148.8" y="228.8" width="14.4" height="14.4" rx="3.5" fill="url(#sunset)" />
<rect x="164.8" y="228.8" width="14.4" height="14.4" rx="3.5" fill="url(#sunset)" />
<rect x="180.8" y="228.8" width="14.4" height="14.4" rx="3.5" fill="url(#sunset)" />
<rect x="196.8" y="228.8" width="14.4" height="14.4" rx="3.5" fill="url(#sunset)" />
<rect x="212.8" y="228.8" width="14.4" height="14.4" rx="3.5" fill="url(#sunset)" />
<rect x="244.8" y="228.8" width="14.4" height="14.4" rx="3.5" fill="url(#sunset)" />
<rect x="260.8" y="228.8" width="14.4" height="14.4" rx="3.5" fill="url(#sunset)" />
<rect x="388.8" y="228.8" width="14.4" height="14.4" rx="3.5" fill="url(#sunset)" />
<rect x="404.8" y="228.8" width="14.4" height="14.4" rx="3.5" fill="url(#sunset)" />
<rect x="452.8" y="228.8" width="14.4" height="14.4" rx="3.5" fill="url(#sunset)" />
<rect x="468.8" y="228.8" width="14.4" height="14.4" rx="3.5" fill="url(#sunset)" />
<rect x="484.8" y="228.8" width="14.4" height="14.4" rx="3.5" fill="url(#sunset)" />
<rect x="516.8" y="228.8" width="14.4" height="14.4" rx="3.5" fill="url(#sunset)" />
<rect x="84.8" y="244.8" width="14.4" height="14.4" rx="3.5" fill="url(#sunset)" />
<rect x="100.8" y="244.8" width="14.4" height="14.4" rx="3.5" fill="url(#sunset)" />
<rect x="148.8" y="244.8" width="14.4" height="14.4" rx="3.5" fill="url(#sunset)" />
<rect x="180.8" y="244.8" width="14.4" height="14.4" rx="3.5" fill="url(#sunset)" />
<rect x="372.8" y="244.8" width="14.4" height="14.4" rx="3.5" fill="url(#sunset)" />
<rect x="388.8" y="244.8" width="14.4" height="14.4" rx="3.5" fill="url(#sunset)" />
<rect x="404.8" y="244.8" width="14.4" height="14.4" rx="3.5" fill="url(#sunset)" />
<rect x="436.8" y="244.8" width="14.4" height="14.4" rx="3.5" fill="url(#sunset)" />
<rect x="468.8" y="244.8" width="14.4" height="14.4" rx="3.5" fill="url(#sunset)" />
<rect x="500.8" y="244.8" width="14.4" height="14.4" rx="3.5" fill="url(#sunset)" />
<rect x="516.8" y="244.8" width="14.4" height="14.4" rx="3.5" fill="url(#sunset)" />
<rect x="84.8" y="260.8" width="14.4" height="14.4" rx="3.5" fill="url(#sunset)" />
<rect x="100.8" y="260.8" width="14.4" height="14.4" rx="3.5" fill="url(#sunset)" />
<rect x="116.8" y="260.8" width="14.4" height="14.4" rx="3.5" fill="url(#sunset)" />
<rect x="132.8" y="260.8" width="14.4" height="14.4" rx="3.5" fill="url(#sunset)" />
<rect x="164.8" y="260.8" width="14.4" height="14.4" rx="3.5" fill="url(#sunset)" />
<rect x="196.8" y="260.8" width="14.4" height="14.4" rx="3.5" fill="url(#sunset)" />
<rect x="212.8" y="260.8" width="14.4" height="14.4" rx="3.5" fill="url(#sunset)" />
<rect x="356.8" y="260.8" width="14.4" height="14.4" rx="3.5" fill="url(#sunset)" />
<rect x="436.8" y="260.8" width="14.4" height="14.4" rx="3.5" fill="url(#sunset)" />
<rect x="468.8" y="260.8" width="14.4" height="14.4" rx="3.5" fill="url(#sunset)" />
<rect x="516.8" y="260.8" width="14.4" height="14.4" rx="3.5" fill="url(#sunset)" />
<rect x="84.8" y="276.8" width="14.4" height="14.4" rx="3.5" fill="url(#sunset)" />
<rect x="100.8" y="276.8" width="14.4" height="14.4" rx="3.5" fill="url(#sunset)" />
<rect x="116.8" y="276.8" width="14.4" height="14.4" rx="3.5" fill="url(#sunset)" />
<rect x="148.8" y="276.8" width="14.4" height="14.4" rx="3.5" fill="url(#sunset)" />
<rect x="356.8" y="276.8" width="14.4" height="14.4" rx="3.5" fill="url(#sunset)" />
<rect x="420.8" y="276.8" width="14.4" height="14.4" rx="3.5" fill="url(#sunset)" />
<rect x="452.8" y="276.8" width="14.4" height="14.4" rx="3.5" fill="url(#sunset)" />
<rect x="484.8" y="276.8" width="14.4" height="14.4" rx="3.5" fill="url(#sunset)" />
<rect x="516.8" y="276.8" width="14.4" height="14.4" rx="3.5" fill="url(#sunset)" />
<rect x="68.8" y="292.8" width="14.4" height="14.4" rx="3.5" fill="url(#sunset)" />
<rect x="116.8" y="292.8" width="14.4" height="14.4" rx="3.5" fill="url(#sunset)" />
<rect x="132.8" y="292.8" width="14.4" height="14.4" rx="3.5" fill="url(#sunset)" />
<rect x="148.8" y="292.8" width="14.4" height="14.4" rx="3.5" fill="url(#sunset)" />
<rect x="164.8" y="292.8" width="14.4" height="14.4" rx="3.5" fill="url(#sunset)" />
<rect x="180.8" y="292.8" width="14.4" height="14.4" rx="3.5" fill="url(#sunset)" />
<rect x="212.8" y="292.8" width="14.4" height="14.4" rx="3.5" fill="url(#sunset)" />
<rect x="388.8" y="292.8" width="14.4" height="14.4" rx="3.5" fill="url(#sunset)" />
<rect x="404.8" y="292.8" width="14.4" height="14.4" rx="3.5" fill="url(#sunset)" />
<rect x="452.8" y="292.8" width="14.4" height="14.4" rx="3.5" fill="url(#sunset)" />
<rect x="516.8" y="292.8" width="14.4" height="14.4" rx="3.5" fill="url(#sunset)" />
<rect x="68.8" y="308.8" width="14.4" height="14.4" rx="3.5" fill="url(#sunset)" />
<rect x="132.8" y="308.8" width="14.4" height="14.4" rx="3.5" fill="url(#sunset)" />
<rect x="180.8" y="308.8" width="14.4" height="14.4" rx="3.5" fill="url(#sunset)" />
<rect x="228.8" y="308.8" width="14.4" height="14.4" rx="3.5" fill="url(#sunset)" />
<rect x="356.8" y="308.8" width="14.4" height="14.4" rx="3.5" fill="url(#sunset)" />
<rect x="372.8" y="308.8" width="14.4" height="14.4" rx="3.5" fill="url(#sunset)" />
<rect x="388.8" y="308.8" width="14.4" height="14.4" rx="3.5" fill="url(#sunset)" />
<rect x="420.8" y="308.8" width="14.4" height="14.4" rx="3.5" fill="url(#sunset)" />
<rect x="436.8" y="308.8" width="14.4" height="14.4" rx="3.5" fill="url(#sunset)" />
<rect x="468.8" y="308.8" width="14.4" height="14.4" rx="3.5" fill="url(#sunset)" />
<rect x="500.8" y="308.8" width="14.4" height="14.4" rx="3.5" fill="url(#sunset)" />
<rect x="516.8" y="308.8" width="14.4" height="14.4" rx="3.5" fill="url(#sunset)" />
<rect x="68.8" y="324.8" width="14.4" height="14.4" rx="3.5" fill="url(#sunset)" />
<rect x="84.8" y="324.8" width="14.4" height="14.4" rx="3.5" fill="url(#sunset)" />
<rect x="100.8" y="324.8" width="14.4" height="14.4" rx="3.5" fill="url(#sunset)" />
<rect x="116.8" y="324.8" width="14.4" height="14.4" rx="3.5" fill="url(#sunset)" />
<rect x="164.8" y="324.8" width="14.4" height="14.4" rx="3.5" fill="url(#sunset)" />
<rect x="196.8" y="324.8" width="14.4" height="14.4" rx="3.5" fill="url(#sunset)" />
<rect x="212.8" y="324.8" width="14.4" height="14.4" rx="3.5" fill="url(#sunset)" />
<rect x="372.8" y="324.8" width="14.4" height="14.4" rx="3.5" fill="url(#sunset)" />
<rect x="388.8" y="324.8" width="14.4" height="14.4" rx="3.5" fill="url(#sunset)" />
<rect x="404.8" y="324.8" width="14.4" height="14.4" rx="3.5" fill="url(#sunset)" />
<rect x="436.8" y="324.8" width="14.4" height="14.4" rx="3.5" fill="url(#sunset)" />
<rect x="500.8" y="324.8" width="14.4" height="14.4" rx="3.5" fill="url(#sunset)" />
<rect x="516.8" y="324.8" width="14.4" height="14.4" rx="3.5" fill="url(#sunset)" />
<rect x="68.8" y="340.8" width="14.4" height="14.4" rx="3.5" fill="url(#sunset)" />
<rect x="84.8" y="340.8" width="14.4" height="14.4" rx="3.5" fill="url(#sunset)" />
<rect x="116.8" y="340.8" width="14.4" height="14.4" rx="3.5" fill="url(#sunset)" />
<rect x="132.8" y="340.8" width="14.4" height="14.4" rx="3.5" fill="url(#sunset)" />
<rect x="196.8" y="340.8" width="14.4" height="14.4" rx="3.5" fill="url(#sunset)" />
<rect x="212.8" y="340.8" width="14.4" height="14.4" rx="3.5" fill="url(#sunset)" />
<rect x="356.8" y="340.8" width="14.4" height="14.4" rx="3.5" fill="url(#sunset)" />
<rect x="388.8" y="340.8" width="14.4" height="14.4" rx="3.5" fill="url(#sunset)" />
<rect x="404.8" y="340.8" width="14.4" height="14.4" rx="3.5" fill="url(#sunset)" />
<rect x="420.8" y="340.8" width="14.4" height="14.4" rx="3.5" fill="url(#sunset)" />
<rect x="436.8" y="340.8" width="14.4" height="14.4" rx="3.5" fill="url(#sunset)" />
<rect x="452.8" y="340.8" width="14.4" height="14.4" rx="3.5" fill="url(#sunset)" />
<rect x="468.8" y="340.8" width="14.4" height="14.4" rx="3.5" fill="url(#sunset)" />
<rect x="484.8" y="340.8" width="14.4" height="14.4" rx="3.5" fill="url(#sunset)" />
<rect x="516.8" y="340.8" width="14.4" height="14.4" rx="3.5" fill="url(#sunset)" />
<rect x="132.8" y="356.8" width="14.4" height="14.4" rx="3.5" fill="url(#sunset)" />
<rect x="148.8" y="356.8" width="14.4" height="14.4" rx="3.5" fill="url(#sunset)" />
<rect x="164.8" y="356.8" width="14.4" height="14.4" rx="3.5" fill="url(#sunset)" />
<rect x="244.8" y="356.8" width="14.4" height="14.4" rx="3.5" fill="url(#sunset)" />
<rect x="276.8" y="356.8" width="14.4" height="14.4" rx="3.5" fill="url(#sunset)" />
<rect x="308.8" y="356.8" width="14.4" height="14.4" rx="3.5" fill="url(#sunset)" />
<rect x="324.8" y="356.8" width="14.4" height="14.4" rx="3.5" fill="url(#sunset)" />
<rect x="388.8" y="356.8" width="14.4" height="14.4" rx="3.5" fill="url(#sunset)" />
<rect x="436.8" y="356.8" width="14.4" height="14.4" rx="3.5" fill="url(#sunset)" />
<rect x="452.8" y="356.8" width="14.4" height="14.4" rx="3.5" fill="url(#sunset)" />
<rect x="468.8" y="356.8" width="14.4" height="14.4" rx="3.5" fill="url(#sunset)" />
<rect x="484.8" y="356.8" width="14.4" height="14.4" rx="3.5" fill="url(#sunset)" />
<rect x="516.8" y="356.8" width="14.4" height="14.4" rx="3.5" fill="url(#sunset)" />
<rect x="100.8" y="372.8" width="14.4" height="14.4" rx="3.5" fill="url(#sunset)" />
<rect x="116.8" y="372.8" width="14.4" height="14.4" rx="3.5" fill="url(#sunset)" />
<rect x="132.8" y="372.8" width="14.4" height="14.4" rx="3.5" fill="url(#sunset)" />
<rect x="148.8" y="372.8" width="14.4" height="14.4" rx="3.5" fill="url(#sunset)" />
<rect x="276.8" y="372.8" width="14.4" height="14.4" rx="3.5" fill="url(#sunset)" />
<rect x="292.8" y="372.8" width="14.4" height="14.4" rx="3.5" fill="url(#sunset)" />
<rect x="308.8" y="372.8" width="14.4" height="14.4" rx="3.5" fill="url(#sunset)" />
<rect x="340.8" y="372.8" width="14.4" height="14.4" rx="3.5" fill="url(#sunset)" />
<rect x="388.8" y="372.8" width="14.4" height="14.4" rx="3.5" fill="url(#sunset)" />
<rect x="452.8" y="372.8" width="14.4" height="14.4" rx="3.5" fill="url(#sunset)" />
<rect x="468.8" y="372.8" width="14.4" height="14.4" rx="3.5" fill="url(#sunset)" />
<rect x="500.8" y="372.8" width="14.4" height="14.4" rx="3.5" fill="url(#sunset)" />
<rect x="68.8" y="388.8" width="14.4" height="14.4" rx="3.5" fill="url(#sunset)" />
<rect x="84.8" y="388.8" width="14.4" height="14.4" rx="3.5" fill="url(#sunset)" />
<rect x="132.8" y="388.8" width="14.4" height="14.4" rx="3.5" fill="url(#sunset)" />
<rect x="148.8" y="388.8" width="14.4" height="14.4" rx="3.5" fill="url(#sunset)" />
<rect x="164.8" y="388.8" width="14.4" height="14.4" rx="3.5" fill="url(#sunset)" />
<rect x="180.8" y="388.8" width="14.4" height="14.4" rx="3.5" fill="url(#sunset)" />
<rect x="228.8" y="388.8" width="14.4" height="14.4" rx="3.5" fill="url(#sunset)" />
<rect x="260.8" y="388.8" width="14.4" height="14.4" rx="3.5" fill="url(#sunset)" />
<rect x="324.8" y="388.8" width="14.4" height="14.4" rx="3.5" fill="url(#sunset)" />
<rect x="372.8" y="388.8" width="14.4" height="14.4" rx="3.5" fill="url(#sunset)" />
<rect x="388.8" y="388.8" width="14.4" height="14.4" rx="3.5" fill="url(#sunset)" />
<rect x="404.8" y="388.8" width="14.4" height="14.4" rx="3.5" fill="url(#sunset)" />
<rect x="420.8" y="388.8" width="14.4" height="14.4" rx="3.5" fill="url(#sunset)" />
<rect x="436.8" y="388.8" width="14.4" height="14.4" rx="3.5" fill="url(#sunset)" />
<rect x="452.8" y="388.8" width="14.4" height="14.4" rx="3.5" fill="url(#sunset)" />
<rect x="500.8" y="388.8" width="14.4" height="14.4" rx="3.5" fill="url(#sunset)" />
<rect x="196.8" y="404.8" width="14.4" height="14.4" rx="3.5" fill="url(#sunset)" />
<rect x="212.8" y="404.8" width="14.4" height="14.4" rx="3.5" fill="url(#sunset)" />
<rect x="244.8" y="404.8" width="14.4" height="14.4" rx="3.5" fill="url(#sunset)" />
<rect x="292.8" y="404.8" width="14.4" height="14.4" rx="3.5" fill="url(#sunset)" />
<rect x="308.8" y="404.8" width="14.4" height="14.4" rx="3.5" fill="url(#sunset)" />
<rect x="340.8" y="404.8" width="14.4" height="14.4" rx="3.5" fill="url(#sunset)" />
<rect x="388.8" y="404.8" width="14.4" height="14.4" rx="3.5" fill="url(#sunset)" />
<rect x="452.8" y="404.8" width="14.4" height="14.4" rx="3.5" fill="url(#sunset)" />
<rect x="484.8" y="404.8" width="14.4" height="14.4" rx="3.5" fill="url(#sunset)" />
<rect x="516.8" y="404.8" width="14.4" height="14.4" rx="3.5" fill="url(#sunset)" />
<rect x="196.8" y="420.8" width="14.4" height="14.4" rx="3.5" fill="url(#sunset)" />
<rect x="212.8" y="420.8" width="14.4" height="14.4" rx="3.5" fill="url(#sunset)" />
<rect x="260.8" y="420.8" width="14.4" height="14.4" rx="3.5" fill="url(#sunset)" />
<rect x="276.8" y="420.8" width="14.4" height="14.4" rx="3.5" fill="url(#sunset)" />
<rect x="340.8" y="420.8" width="14.4" height="14.4" rx="3.5" fill="url(#sunset)" />
<rect x="372.8" y="420.8" width="14.4" height="14.4" rx="3.5" fill="url(#sunset)" />
<rect x="388.8" y="420.8" width="14.4" height="14.4" rx="3.5" fill="url(#sunset)" />
<rect x="420.8" y="420.8" width="14.4" height="14.4" rx="3.5" fill="url(#sunset)" />
<rect x="452.8" y="420.8" width="14.4" height="14.4" rx="3.5" fill="url(#sunset)" />
<rect x="516.8" y="420.8" width="14.4" height="14.4" rx="3.5" fill="url(#sunset)" />
<rect x="196.8" y="436.8" width="14.4" height="14.4" rx="3.5" fill="url(#sunset)" />
<rect x="212.8" y="436.8" width="14.4" height="14.4" rx="3.5" fill="url(#sunset)" />
<rect x="228.8" y="436.8" width="14.4" height="14.4" rx="3.5" fill="url(#sunset)" />
<rect x="244.8" y="436.8" width="14.4" height="14.4" rx="3.5" fill="url(#sunset)" />
<rect x="276.8" y="436.8" width="14.4" height="14.4" rx="3.5" fill="url(#sunset)" />
<rect x="292.8" y="436.8" width="14.4" height="14.4" rx="3.5" fill="url(#sunset)" />
<rect x="324.8" y="436.8" width="14.4" height="14.4" rx="3.5" fill="url(#sunset)" />
<rect x="340.8" y="436.8" width="14.4" height="14.4" rx="3.5" fill="url(#sunset)" />
<rect x="356.8" y="436.8" width="14.4" height="14.4" rx="3.5" fill="url(#sunset)" />
<rect x="372.8" y="436.8" width="14.4" height="14.4" rx="3.5" fill="url(#sunset)" />
<rect x="388.8" y="436.8" width="14.4" height="14.4" rx="3.5" fill="url(#sunset)" />
<rect x="452.8" y="436.8" width="14.4" height="14.4" rx="3.5" fill="url(#sunset)" />
<rect x="468.8" y="436.8" width="14.4" height="14.4" rx="3.5" fill="url(#sunset)" />
<rect x="500.8" y="436.8" width="14.4" height="14.4" rx="3.5" fill="url(#sunset)" />
<rect x="196.8" y="452.8" width="14.4" height="14.4" rx="3.5" fill="url(#sunset)" />
<rect x="212.8" y="452.8" width="14.4" height="14.4" rx="3.5" fill="url(#sunset)" />
<rect x="228.8" y="452.8" width="14.4" height="14.4" rx="3.5" fill="url(#sunset)" />
<rect x="276.8" y="452.8" width="14.4" height="14.4" rx="3.5" fill="url(#sunset)" />
<rect x="308.8" y="452.8" width="14.4" height="14.4" rx="3.5" fill="url(#sunset)" />
<rect x="324.8" y="452.8" width="14.4" height="14.4" rx="3.5" fill="url(#sunset)" />
<rect x="356.8" y="452.8" width="14.4" height="14.4" rx="3.5" fill="url(#sunset)" />
<rect x="372.8" y="452.8" width="14.4" height="14.4" rx="3.5" fill="url(#sunset)" />
<rect x="388.8" y="452.8" width="14.4" height="14.4" rx="3.5" fill="url(#sunset)" />
<rect x="404.8" y="452.8" width="14.4" height="14.4" rx="3.5" fill="url(#sunset)" />
<rect x="420.8" y="452.8" width="14.4" height="14.4" rx="3.5" fill="url(#sunset)" />
<rect x="436.8" y="452.8" width="14.4" height="14.4" rx="3.5" fill="url(#sunset)" />
<rect x="452.8" y="452.8" width="14.4" height="14.4" rx="3.5" fill="url(#sunset)" />
<rect x="500.8" y="452.8" width="14.4" height="14.4" rx="3.5" fill="url(#sunset)" />
<rect x="516.8" y="452.8" width="14.4" height="14.4" rx="3.5" fill="url(#sunset)" />
<rect x="212.8" y="468.8" width="14.4" height="14.4" rx="3.5" fill="url(#sunset)" />
<rect x="228.8" y="468.8" width="14.4" height="14.4" rx="3.5" fill="url(#sunset)" />
<rect x="260.8" y="468.8" width="14.4" height="14.4" rx="3.5" fill="url(#sunset)" />
<rect x="276.8" y="468.8" width="14.4" height="14.4" rx="3.5" fill="url(#sunset)" />
<rect x="308.8" y="468.8" width="14.4" height="14.4" rx="3.5" fill="url(#sunset)" />
<rect x="340.8" y="468.8" width="14.4" height="14.4" rx="3.5" fill="url(#sunset)" />
<rect x="356.8" y="468.8" width="14.4" height="14.4" rx="3.5" fill="url(#sunset)" />
<rect x="436.8" y="468.8" width="14.4" height="14.4" rx="3.5" fill="url(#sunset)" />
<rect x="484.8" y="468.8" width="14.4" height="14.4" rx="3.5" fill="url(#sunset)" />
<rect x="500.8" y="468.8" width="14.4" height="14.4" rx="3.5" fill="url(#sunset)" />
<rect x="212.8" y="484.8" width="14.4" height="14.4" rx="3.5" fill="url(#sunset)" />
<rect x="260.8" y="484.8" width="14.4" height="14.4" rx="3.5" fill="url(#sunset)" />
<rect x="308.8" y="484.8" width="14.4" height="14.4" rx="3.5" fill="url(#sunset)" />
<rect x="324.8" y="484.8" width="14.4" height="14.4" rx="3.5" fill="url(#sunset)" />
<rect x="340.8" y="484.8" width="14.4" height="14.4" rx="3.5" fill="url(#sunset)" />
<rect x="356.8" y="484.8" width="14.4" height="14.4" rx="3.5" fill="url(#sunset)" />
<rect x="372.8" y="484.8" width="14.4" height="14.4" rx="3.5" fill="url(#sunset)" />
<rect x="388.8" y="484.8" width="14.4" height="14.4" rx="3.5" fill="url(#sunset)" />
<rect x="404.8" y="484.8" width="14.4" height="14.4" rx="3.5" fill="url(#sunset)" />
<rect x="500.8" y="484.8" width="14.4" height="14.4" rx="3.5" fill="url(#sunset)" />
<rect x="516.8" y="484.8" width="14.4" height="14.4" rx="3.5" fill="url(#sunset)" />
<rect x="244.8" y="500.8" width="14.4" height="14.4" rx="3.5" fill="url(#sunset)" />
<rect x="260.8" y="500.8" width="14.4" height="14.4" rx="3.5" fill="url(#sunset)" />
<rect x="308.8" y="500.8" width="14.4" height="14.4" rx="3.5" fill="url(#sunset)" />
<rect x="340.8" y="500.8" width="14.4" height="14.4" rx="3.5" fill="url(#sunset)" />
<rect x="356.8" y="500.8" width="14.4" height="14.4" rx="3.5" fill="url(#sunset)" />
<rect x="388.8" y="500.8" width="14.4" height="14.4" rx="3.5" fill="url(#sunset)" />
<rect x="420.8" y="500.8" width="14.4" height="14.4" rx="3.5" fill="url(#sunset)" />
<rect x="436.8" y="500.8" width="14.4" height="14.4" rx="3.5" fill="url(#sunset)" />
<rect x="500.8" y="500.8" width="14.4" height="14.4" rx="3.5" fill="url(#sunset)" />
<rect x="516.8" y="500.8" width="14.4" height="14.4" rx="3.5" fill="url(#sunset)" />
<rect x="212.8" y="516.8" width="14.4" height="14.4" rx="3.5" fill="url(#sunset)" />
<rect x="260.8" y="516.8" width="14.4" height="14.4" rx="3.5" fill="url(#sunset)" />
<rect x="276.8" y="516.8" width="14.4" height="14.4" rx="3.5" fill="url(#sunset)" />
<rect x="292.8" y="516.8" width="14.4" height="14.4" rx="3.5" fill="url(#sunset)" />
<rect x="340.8" y="516.8" width="14.4" height="14.4" rx="3.5" fill="url(#sunset)" />
<rect x="388.8" y="516.8" width="14.4" height="14.4" rx="3.5" fill="url(#sunset)" />
<rect x="452.8" y="516.8" width="14.4" height="14.4" rx="3.5" fill="url(#sunset)" />
<rect x="468.8" y="516.8" width="14.4" height="14.4" rx="3.5" fill="url(#sunset)" />
<rect x="500.8" y="516.8" width="14.4" height="14.4" rx="3.5" fill="url(#sunset)" />

    
    <rect x="68" y="68" width="112" height="112" rx="12" fill="url(#sunset)" />
    <rect x="84" y="84" width="80" height="80" rx="9" fill="#0E0E11" />
    <rect x="100" y="100" width="48" height="48" rx="6" fill="#FFFFFF" />
  
    
    <rect x="420" y="68" width="112" height="112" rx="12" fill="url(#sunset)" />
    <rect x="436" y="84" width="80" height="80" rx="9" fill="#0E0E11" />
    <rect x="452" y="100" width="48" height="48" rx="6" fill="#FFFFFF" />
  
    
    <rect x="68" y="420" width="112" height="112" rx="12" fill="url(#sunset)" />
    <rect x="84" y="436" width="80" height="80" rx="9" fill="#0E0E11" />
    <rect x="100" y="452" width="48" height="48" rx="6" fill="#FFFFFF" />
  

    <!-- Center Logo Badge -->
    <rect x="248.8" y="248.8" width="102.4" height="102.4" rx="14" fill="#0E0E11" stroke="url(#sunset)" stroke-width="2.5" />
    <g transform="translate(300, 306)" text-anchor="middle">
      <text font-family="-apple-system, BlinkMacSystemFont, 'Segoe UI', Roboto, sans-serif" font-size="21" font-weight="900" fill="#FFFFFF" letter-spacing="-0.02em">
        Loc<tspan fill="#FF7A18">T</tspan>
      </text>
    </g>
  </svg>